<?xml version="1.0" encoding="iso-8859-1"?>
<!-- Generator: Adobe Illustrator 19.0.0, SVG Export Plug-In . SVG Version: 6.00 Build 0)  -->
<svg version="1.1" id="Capa_1" xmlns="http://www.w3.org/2000/svg" xmlns:xlink="http://www.w3.org/1999/xlink" x="0px" y="0px"
	 viewBox="0 0 60 60" style="enable-background:new 0 0 60 60;" xml:space="preserve">
<g>
	<g>
		<path d="M46.19,0H10C9.448,0,9,0.448,9,1v58c0,0.552,0.448,1,1,1h36.19c2.652,0,4.81-2.158,4.81-4.81V4.81
			C51,2.158,48.842,0,46.19,0z M49,55.19c0,1.549-1.261,2.81-2.81,2.81H11V2h35.19C47.739,2,49,3.261,49,4.81V55.19z"/>
		<path d="M42.426,11.423c-0.029-0.042-0.071-0.066-0.105-0.102c-2.937-3.097-7.019-5.081-11.565-5.283l-0.026-0.02L30,6
			l-0.73,0.018l-0.026,0.021C24.699,6.24,20.617,8.223,17.68,11.32c-0.034,0.037-0.078,0.061-0.107,0.104
			c-0.005,0.008-0.006,0.017-0.011,0.025C14.741,14.485,13,18.538,13,23c0,4.291,1.61,8.204,4.242,11.199
			c0.01,0.016,0.011,0.034,0.022,0.05c0.043,0.06,0.103,0.098,0.156,0.146c2.953,3.257,7.141,5.36,11.824,5.567l0.026,0.021L30,40
			l0.73-0.018l0.026-0.021c4.709-0.208,8.918-2.333,11.874-5.622c0.033-0.034,0.077-0.051,0.106-0.091
			c0.011-0.016,0.012-0.034,0.022-0.05C45.39,31.204,47,27.291,47,23c0-4.462-1.741-8.515-4.563-11.551
			C42.432,11.441,42.432,11.431,42.426,11.423z M26.733,8.369c-1.396,1.507-2.559,3.19-3.464,5.001
			c-1.122-0.412-2.209-0.923-3.246-1.54C21.899,10.153,24.192,8.936,26.733,8.369z M18.589,13.289
			c1.231,0.77,2.525,1.413,3.87,1.915c-0.833,2.149-1.323,4.438-1.431,6.796h-5.977C15.271,18.689,16.56,15.67,18.589,13.289z
			 M18.283,32.34c-1.853-2.32-3.023-5.198-3.232-8.34h5.977c0.1,2.176,0.523,4.294,1.242,6.298
			C20.881,30.833,19.548,31.517,18.283,32.34z M19.652,33.832c1.077-0.674,2.208-1.236,3.381-1.684
			c0.935,1.995,2.181,3.842,3.701,5.483C24.023,37.026,21.592,35.686,19.652,33.832z M29,37.09c-1.685-1.62-3.047-3.503-4.045-5.563
			c1.315-0.35,2.667-0.563,4.045-0.632V37.09z M29,28.895c-1.648,0.075-3.263,0.336-4.828,0.775c-0.653-1.804-1.046-3.71-1.145-5.67
			H29V28.895z M29,22h-5.973c0.108-2.148,0.566-4.233,1.337-6.188c1.506,0.407,3.057,0.65,4.636,0.722V22z M29,14.534
			c-1.289-0.065-2.557-0.254-3.793-0.566c0.971-1.863,2.246-3.572,3.793-5.059V14.534z M39.977,11.831
			c-1.037,0.617-2.124,1.128-3.246,1.54c-0.905-1.811-2.067-3.494-3.464-5.001C35.808,8.936,38.101,10.153,39.977,11.831z M31,8.91
			c1.547,1.487,2.822,3.195,3.793,5.059C33.557,14.28,32.289,14.47,31,14.535V8.91z M31,16.534c1.579-0.072,3.13-0.315,4.636-0.722
			c0.771,1.955,1.229,4.04,1.337,6.188H31V16.534z M31,24h5.973c-0.099,1.96-0.492,3.866-1.145,5.67
			c-1.565-0.439-3.18-0.7-4.828-0.775V24z M31,30.895c1.378,0.069,2.731,0.282,4.045,0.632c-0.998,2.059-2.36,3.943-4.045,5.563
			C31,37.09,31,30.895,31,30.895z M33.267,37.631c1.52-1.641,2.766-3.488,3.701-5.483c1.172,0.448,2.303,1.01,3.381,1.684
			C38.408,35.686,35.977,37.026,33.267,37.631z M41.717,32.34c-1.266-0.822-2.599-1.507-3.987-2.042
			c0.719-2.004,1.142-4.122,1.242-6.298h5.977C44.741,27.141,43.57,30.02,41.717,32.34z M38.972,22
			c-0.108-2.358-0.598-4.647-1.431-6.796c1.345-0.503,2.638-1.145,3.87-1.915c2.029,2.381,3.318,5.4,3.538,8.711H38.972z"/>
		<path d="M45,45H15c-0.552,0-1,0.448-1,1s0.448,1,1,1h30c0.552,0,1-0.448,1-1S45.552,45,45,45z"/>
		<path d="M45,50H15c-0.552,0-1,0.448-1,1s0.448,1,1,1h30c0.552,0,1-0.448,1-1S45.552,50,45,50z"/>
	</g>
</g>
<g>
</g>
<g>
</g>
<g>
</g>
<g>
</g>
<g>
</g>
<g>
</g>
<g>
</g>
<g>
</g>
<g>
</g>
<g>
</g>
<g>
</g>
<g>
</g>
<g>
</g>
<g>
</g>
<g>
</g>
</svg>
